<svg width="129" height="55" viewBox="0 0 129 55" fill="none" xmlns="http://www.w3.org/2000/svg">
<path d="M8.94747 36.2052C8.92313 35.1339 7.96187 34.3755 6.90326 34.3755C4.56297 34.3755 4.19387 36.3497 4.19387 38.1072C4.19387 39.7403 4.90772 41.4215 6.68424 41.4215C8.14033 41.4215 8.87852 40.5909 9.07726 39.2507H13.1454C12.7763 42.6413 10.1115 44.5914 6.71263 44.5914C2.85946 44.5954 0 41.9833 0 38.1072C0 34.0826 2.58771 31.2056 6.70452 31.2056C9.8844 31.2056 12.7195 32.8628 13.0156 36.2052H8.94747Z" fill="white"/>
<path d="M15.3801 31.5707H19.4483V33.7896H19.4969C20.1134 32.1806 21.5411 31.3259 23.342 31.3259C23.6624 31.3259 24.0072 31.35 24.3276 31.4222V35.202C23.7841 35.0576 23.2933 34.9573 22.7255 34.9573C20.6569 34.9573 19.5699 36.3737 19.5699 37.9587V44.2263H15.3801V31.5707Z" fill="white"/>
<path d="M28.8662 38.9137C28.9392 40.6431 29.9492 41.7907 31.7257 41.7907C32.7356 41.7907 33.7212 41.3292 34.1147 40.4023H38.0327C37.2702 43.3275 34.5324 44.5954 31.673 44.5954C27.5075 44.5954 24.6724 42.1077 24.6724 37.8664C24.6724 33.9903 27.8036 31.2096 31.5756 31.2096C36.1589 31.2096 38.4505 34.6243 38.2558 38.9137H28.8662ZM34.066 36.5944C33.993 35.178 32.983 34.0104 31.5756 34.0104C30.0952 34.0104 29.1096 35.0576 28.8662 36.5944H34.066Z" fill="white"/>
<path d="M40.1826 35.4749C40.2556 33.8177 41.0465 32.7424 42.1781 32.0843C43.3138 31.4503 44.7902 31.2056 46.2463 31.2056C49.2761 31.2056 52.2126 31.8636 52.2126 35.4468V40.9841C52.2126 42.0555 52.2126 43.2272 52.7074 44.2263H48.4933C48.3473 43.8371 48.2945 43.4478 48.2459 43.0305C47.1629 44.1541 45.5608 44.5914 44.0317 44.5914C41.59 44.5914 39.6675 43.3716 39.6675 40.7634C39.6675 36.6426 44.2021 36.9596 47.1102 36.3737C47.824 36.2293 48.2175 35.9845 48.2175 35.2021C48.2175 34.2511 47.0575 33.8859 46.1976 33.8859C45.0376 33.8859 44.2994 34.3996 44.1007 35.4709H40.1826V35.4749ZM45.6014 42.0354C47.5969 42.0354 48.2621 40.9119 48.1647 38.3038C47.5726 38.6689 46.4896 38.7411 45.577 38.9859C44.6401 39.2066 43.8532 39.5958 43.8532 40.5949C43.8532 41.6181 44.6685 42.0354 45.6014 42.0354Z" fill="white"/>
<path d="M62.6849 34.2552H60.0972V40.0092C60.0972 41.0083 60.6894 41.229 61.602 41.229C61.9467 41.229 62.3158 41.1808 62.6849 41.1808V44.2304C61.9224 44.2544 61.1558 44.3507 60.3933 44.3507C56.82 44.3507 55.9074 43.3275 55.9074 39.8888V34.2552H53.7861V31.5708H55.9074V27.7428H60.0972V31.5708H62.6849V34.2552Z" fill="white"/>
<path d="M77.2785 44.2264H73.2104V42.497H73.1617C72.3708 43.789 70.7444 44.5955 69.268 44.5955C65.5973 44.5955 64.5347 42.497 64.5347 39.1826V31.5708H68.7245V38.9097C68.7245 40.591 69.4627 41.1768 70.793 41.1768C71.7056 41.1768 73.0847 40.591 73.0847 38.348V31.5708H77.2745V44.2264H77.2785Z" fill="white"/>
<path d="M80.2351 31.5707H84.3032V33.7896H84.3519C84.9684 32.1806 86.3961 31.3259 88.1969 31.3259C88.5174 31.3259 88.8621 31.35 89.1825 31.4222V35.202C88.6391 35.0576 88.1483 34.9573 87.5804 34.9573C85.5119 34.9573 84.4249 36.3737 84.4249 37.9587V44.2263H80.2351V31.5707Z" fill="white"/>
<path d="M93.7212 38.9137C93.7942 40.6431 94.8042 41.7907 96.5807 41.7907C97.5906 41.7907 98.5762 41.3292 98.9696 40.4023H102.888C102.125 43.3275 99.3874 44.5954 96.528 44.5954C92.3625 44.5954 89.5273 42.1077 89.5273 37.8664C89.5273 33.9903 92.6586 31.2096 96.4306 31.2096C101.014 31.2096 103.31 34.6243 103.111 38.9137H93.7212ZM98.921 36.5944C98.848 35.178 97.838 34.0104 96.4306 34.0104C94.9502 34.0104 93.9646 35.0576 93.7212 36.5944H98.921Z" fill="white"/>
<path d="M105.382 26.8159H112.951C118.349 26.8159 121.578 30.0581 121.578 35.4469C121.578 41.1527 118.3 44.2264 112.951 44.2264H105.382V26.8159ZM109.965 40.3262H112.135C115.611 40.2539 116.99 38.9137 116.99 35.4268C116.99 32.2569 115.266 30.7201 112.135 30.7201H109.965V40.3262Z" fill="white"/>
<path d="M126.408 39.6921C127.674 39.6921 128.7 40.7073 128.7 41.9592C128.7 43.2111 127.674 44.2263 126.408 44.2263C125.143 44.2263 124.117 43.2111 124.117 41.9592C124.117 40.7073 125.143 39.6921 126.408 39.6921Z" fill="#F5D200"/>
<path d="M27.7102 53.098C27.6656 52.9335 27.5763 52.6285 27.1018 52.6285C26.826 52.6285 26.4204 52.8091 26.4204 53.5795C26.4204 54.069 26.6151 54.5064 27.1018 54.5064C27.4182 54.5064 27.6412 54.3298 27.7102 53.9928H28.2861C28.1726 54.5826 27.7791 54.9959 27.0896 54.9959C26.3596 54.9959 25.8323 54.5064 25.8323 53.5675C25.8323 52.6165 26.3879 52.131 27.0977 52.131C27.9211 52.131 28.2537 52.6927 28.2861 53.094H27.7102V53.098Z" fill="white"/>
<path d="M31.7864 52.2073H33.1776C33.9076 52.2073 34.0415 52.7409 34.0415 52.9777C34.0415 53.2786 33.8874 53.5354 33.6156 53.6237C33.8428 53.724 33.9644 53.8043 33.9644 54.3139C33.9644 54.7111 33.9644 54.8114 34.0861 54.8556V54.9278H33.4493C33.4128 54.7994 33.3885 54.6589 33.3885 54.3781C33.3885 54.0049 33.3641 53.8645 32.9423 53.8645H32.3502V54.9278H31.7864V52.2073ZM33.0234 53.407C33.3236 53.407 33.4696 53.3067 33.4696 53.0339C33.4696 52.8894 33.4047 52.6767 33.0681 52.6767H32.3502V53.403H33.0234V53.407Z" fill="white"/>
<path d="M39.6389 52.6887H38.1788V53.2625H39.5213V53.744H38.1788V54.4502H39.7038V54.9317H37.615V52.2112H39.6389V52.6887Z" fill="white"/>
<path d="M43.6217 54.9278H43.0173L43.9989 52.2073H44.66L45.6294 54.9278H45.0048L44.8304 54.366H43.8164L43.6217 54.9278ZM43.9664 53.9006H44.6681L44.3274 52.8252H44.3193L43.9664 53.9006Z" fill="white"/>
<path d="M49.8842 54.9278H49.3083V52.6888H48.4768V52.2073H50.7157V52.6888H49.8842V54.9278Z" fill="white"/>
<path d="M54.6499 54.9278H54.074V52.2073H54.6499V54.9278Z" fill="white"/>
<path d="M59.8416 52.2073H60.4378L59.5049 54.9278H58.9574L58.0286 52.2073H58.6451L59.2332 54.2697H59.2413L59.8416 52.2073Z" fill="white"/>
<path d="M65.8892 52.6887H64.429V53.2625H65.7715V53.744H64.429V54.4502H65.9541V54.9317H63.8652V52.2112H65.8892V52.6887Z" fill="white"/>
<path d="M74.0253 54.0931C74.0294 54.2456 74.1065 54.5305 74.6094 54.5305C74.8811 54.5305 75.1853 54.4663 75.1853 54.1774C75.1853 53.9647 74.9785 53.9086 74.6865 53.8403L74.3904 53.7721C73.9442 53.6718 73.5183 53.5715 73.5183 52.9736C73.5183 52.6687 73.6846 52.135 74.5769 52.135C75.4206 52.135 75.6437 52.6807 75.6477 53.0138H75.0961C75.0799 52.8934 75.0353 52.6045 74.5323 52.6045C74.3133 52.6045 74.0537 52.6847 74.0537 52.9295C74.0537 53.1422 74.2281 53.1863 74.3458 53.2144L75.015 53.3789C75.3922 53.4712 75.737 53.6197 75.737 54.1092C75.737 54.9277 74.8933 55 74.654 55C73.6522 55 73.4778 54.4262 73.4778 54.0891H74.0253V54.0931Z" fill="white"/>
<path d="M80.3241 54.9278H79.7482V52.6888H78.9167V52.2073H81.1556V52.6888H80.3241V54.9278Z" fill="white"/>
<path d="M86.7611 53.9767C86.7611 54.6909 86.323 54.9999 85.6295 54.9999C85.378 54.9999 85.0008 54.9397 84.7574 54.6709C84.6074 54.5023 84.5506 54.2857 84.5425 54.0128V52.2112H85.1306V53.9767C85.1306 54.3539 85.3537 54.5224 85.6214 54.5224C86.0148 54.5224 86.177 54.3338 86.177 54.0048V52.2112H86.7611V53.9767Z" fill="white"/>
<path d="M90.3872 52.2073H91.5999C92.5247 52.2073 92.7194 52.9857 92.7194 53.5033C92.7194 54.0851 92.4841 54.9278 91.5796 54.9278H90.3872V52.2073ZM90.951 54.4583H91.5107C91.9771 54.4583 92.1353 53.9929 92.1353 53.5435C92.1353 52.7409 91.75 52.6767 91.5026 52.6767H90.951V54.4583Z" fill="white"/>
<path d="M96.7427 54.9278H96.1667V52.2073H96.7427V54.9278Z" fill="white"/>
<path d="M101.545 52.135C101.91 52.135 102.867 52.2915 102.867 53.5675C102.867 54.8435 101.91 55 101.545 55C101.18 55 100.223 54.8435 100.223 53.5675C100.223 52.2915 101.18 52.135 101.545 52.135ZM101.545 54.5185C101.853 54.5185 102.291 54.3299 102.291 53.5675C102.291 52.8051 101.853 52.6165 101.545 52.6165C101.237 52.6165 100.799 52.8051 100.799 53.5675C100.795 54.3299 101.233 54.5185 101.545 54.5185Z" fill="white"/>
<path d="M51.3932 19.4408C55.9897 19.4408 59.716 15.7544 59.716 11.207C59.716 6.65964 55.9897 2.97327 51.3932 2.97327C46.7966 2.97327 43.0703 6.65964 43.0703 11.207C43.0703 15.7544 46.7966 19.4408 51.3932 19.4408Z" fill="#F5D200"/>
<path d="M74.3054 22.4141C80.5618 22.4141 85.6337 17.3965 85.6337 11.207C85.6337 5.01757 80.5618 0 74.3054 0C68.0489 0 62.9771 5.01757 62.9771 11.207C62.9771 17.3965 68.0489 22.4141 74.3054 22.4141Z" fill="#F5D200"/>
<path d="M51.7338 13.117C52.5873 13.117 53.2791 12.4326 53.2791 11.5882C53.2791 10.7439 52.5873 10.0594 51.7338 10.0594C50.8803 10.0594 50.1885 10.7439 50.1885 11.5882C50.1885 12.4326 50.8803 13.117 51.7338 13.117Z" fill="black"/>
<path d="M74.3053 13.117C75.1588 13.117 75.8507 12.4326 75.8507 11.5882C75.8507 10.7439 75.1588 10.0594 74.3053 10.0594C73.4519 10.0594 72.76 10.7439 72.76 11.5882C72.76 12.4326 73.4519 13.117 74.3053 13.117Z" fill="black"/>
</svg>
